<?xml version="1.0" encoding="UTF-8" standalone="no"?><!DOCTYPE svg PUBLIC "-//W3C//DTD SVG 1.1//EN" "http://www.w3.org/Graphics/SVG/1.1/DTD/svg11.dtd"><svg width="100%" height="100%" viewBox="0 0 1536 1024" version="1.1" xmlns="http://www.w3.org/2000/svg" xmlns:xlink="http://www.w3.org/1999/xlink" xml:space="preserve" xmlns:serif="http://www.serif.com/" style="fill-rule:evenodd;clip-rule:evenodd;stroke-linejoin:round;stroke-miterlimit:2;"><g id="Arrière-plan"><path d="M548.212,112.944c18.34,0.38 12.388,11.129 126.424,125.933c153.814,154.851 338.282,285.099 468.934,347.234c206.666,98.286 312.162,67.544 343.657,66.71c20.519,-0.543 13.352,17.601 -15.027,28.811c-212.39,83.902 -501.884,-132.308 -837.286,-401.467c-78.808,-63.243 -81.699,-63.475 -100.208,-60.685c-44.893,6.766 -348.425,201.929 -349.394,202.833c-10.955,10.234 24.969,95.283 24.052,431.939c-0.06,21.843 -7.674,18.823 -19.609,18.952c-28.301,0.305 -36.773,-0.504 -36.105,-11.46c2.542,-41.686 6.645,-41.344 10.563,-155.996c4.204,-122.985 -3.778,-262.629 -4.74,-263.828c-0.995,-1.24 -3.013,-3.755 -18.753,6.578c-9.817,6.444 -112.003,68.258 -114.473,68.263c-10.536,0.022 4.011,-9.407 73.037,-62.125c103.972,-79.031 207.944,-158.063 311.917,-237.094c126.633,-96.239 123.544,-101.628 137.01,-104.599Z" style="fill:#0b0b0b;"/><path d="M622.897,413.872c14.33,10.535 94.844,115.095 241.529,205.404c176.111,108.426 232.258,46.585 231.888,68.483c-0.188,11.126 -66.544,37.292 -162.326,-6.524c-84.636,-38.717 -117.156,-75.792 -116.252,-59.533c1.073,19.298 8.781,157.919 4.02,241.57c-0.391,6.867 -0.104,13.733 -29.022,10.671c-16.276,-1.723 -10.068,-14.858 -8.071,-34.757c1.871,-18.647 14.491,-144.397 11.673,-233.972c-0.401,-12.75 -14.361,-13.231 -54.561,-46.496c-1.295,-1.072 -66.257,-51.038 -72.022,-55.472c-47.337,-36.41 -50.401,-45.098 -79.153,-29.358c-49.059,26.856 -152.127,91.629 -195.379,116.309c-0.89,0.508 -25.991,19.12 -21.286,7.435c0.107,-0.266 99.535,-74.992 131.009,-100.131c5.214,-4.164 32.606,-26.043 65.922,-51.101c39.781,-29.921 38.682,-36.89 52.032,-32.528Z" style="fill:#101010;"/><path d="M663.755,786.033c-115.864,-0.569 -118.369,1.446 -120.016,-3.778c-1.375,-4.363 -0.227,-124.207 -0.124,-135.007c0.631,-65.84 74.962,-87.295 111.107,-50.969c26.548,26.681 20.94,44.962 21.352,161.971c0.066,18.681 6.343,27.357 -12.319,27.784Zm-104.942,-141.779c-0.113,14.458 -2.441,29.582 4.44,29.968c38.011,2.131 38.749,-1.36 38.837,-4.486c0.118,-4.175 0.466,-70.072 -0.145,-71.888c-2.69,-8.004 -21.616,4.663 -26.23,9.422c-15.744,16.241 -15.714,25.777 -16.903,36.985Zm25.435,126.167c5.279,-0.016 17.853,3.307 17.959,-7.671c0.332,-34.456 0.162,-67.885 -0.28,-68.897c-2.903,-6.652 -40.79,-2.682 -41.17,-2.412c-4.063,2.891 -1.781,4.218 -1.915,62.309c-0.003,1.206 -0.031,13.494 1.403,15.004c2.028,2.138 12.999,1.628 24.003,1.666Zm67.499,0.143c12.466,-0.893 9.445,-5.819 9.537,-18.313c0.428,-57.962 1.112,-59.888 -3.57,-61.402c-0.486,-0.157 -34.578,-1.25 -37.088,0.532c-3.661,2.599 -1.922,3.593 -2.5,53.372c-0.087,7.454 -1.523,22.495 2.457,24.759c1.849,1.052 23.059,0.968 31.164,1.052Zm8.929,-127.807l-1.445,-9.002c-6.795,-29.678 -41.39,-47.306 -41.406,-32.978c-0.006,5.525 -0.066,56.547 0.354,69.065c0.184,5.496 7.27,4.699 36.577,4.568c6.811,-0.031 7.287,-3.406 5.921,-31.652Z" style="fill:#171717;"/><path d="M376.351,494.207c-0.008,-0.076 1.897,-12.02 -11.308,-15.969c-10.698,-3.2 -3.477,-6.554 -2.915,-6.717c15.713,-4.527 11.111,-12.807 21.119,-14.78c23.87,-4.705 20.486,17.718 28.812,21.956c25.254,12.857 62.687,7.018 64.957,10.205c6.046,8.489 -18.284,11 -29.745,30.553c-7.46,12.726 -27.275,19.714 -38.633,15.711c-28.198,-9.938 -29.96,-23.137 -32.287,-40.959Zm7.217,-22.576c6.877,5.925 8.614,-4.35 4.189,-4.433c-3.746,-0.07 -3.843,0.744 -4.189,4.433Z" style="fill:#0e0e0e;"/></g></svg>